<?xml version="1.0" encoding="UTF-8"?>
<svg version="1.1" xmlns="http://www.w3.org/2000/svg" width="1477" height="328">
<path d="M0 0 C-0.64200158 7.07691751 -2.94842041 13.5950811 -5.12890625 20.328125 C-5.55454489 21.65651465 -5.97964716 22.98507626 -6.4042511 24.313797 C-7.31072721 27.14714603 -8.22052251 29.97939818 -9.13299561 32.81082153 C-10.58234802 37.30876811 -12.02374459 41.80923761 -13.46337891 46.31030273 C-13.70432785 47.0635744 -13.94527679 47.81684607 -14.19352722 48.59294415 C-14.68070856 50.11603363 -15.1678683 51.63913004 -15.65500641 53.16223335 C-16.38828088 55.45410124 -17.1222503 57.74574556 -17.85638428 60.03733826 C-21.91102006 72.69730475 -25.90801339 85.37479289 -29.875 98.0625 C-31.16235367 102.17590863 -32.45025524 106.2891456 -33.73828125 110.40234375 C-34.23565292 111.99094208 -34.23565292 111.99094208 -34.74307251 113.6116333 C-39.49700795 128.78879366 -44.28152707 143.95634063 -49.0625 159.125 C-49.55234059 160.67920846 -50.04217824 162.23341785 -50.53201294 163.78762817 C-52.51631011 170.08360494 -54.50067249 176.37956114 -56.48521423 182.67546082 C-59.97580092 193.74938237 -63.4648723 204.82378055 -66.953125 215.8984375 C-78.61973798 252.93725255 -90.29910681 289.97199808 -102 327 C-104.5884373 325.70578135 -104.70428098 324.72888176 -105.75856018 322.06900024 C-106.26854553 320.79705811 -106.26854553 320.79705811 -106.78883362 319.49942017 C-107.15701706 318.56069061 -107.5252005 317.62196106 -107.90454102 316.65478516 C-108.49312393 315.17809357 -108.49312393 315.17809357 -109.09359741 313.67156982 C-110.4036316 310.37998031 -111.70374441 307.08456273 -113.00390625 303.7890625 C-113.92379973 301.47188162 -114.84429656 299.15494018 -115.7653656 296.83822632 C-117.96012936 291.31348821 -120.14866305 285.7863213 -122.33427805 280.25796068 C-124.98936227 273.54318047 -127.65393077 266.83217077 -130.31835938 260.12109375 C-134.54220112 249.4791918 -138.75703729 238.83375323 -142.96755409 228.18657303 C-145.61568948 221.49220123 -148.27024583 214.80043067 -150.93174458 208.11136055 C-152.54673032 204.05198338 -154.15927039 199.99163715 -155.77149773 195.93116379 C-156.51968421 194.0487149 -157.26904188 192.16673104 -158.01962471 190.28523636 C-159.03950659 187.72831054 -160.05527902 185.16979013 -161.07006836 182.61083984 C-161.37061316 181.86054882 -161.67115795 181.1102578 -161.98081017 180.33723068 C-164 175.22794641 -164 175.22794641 -164 173 C-165.1557251 172.77900635 -166.3114502 172.5580127 -167.50219727 172.33032227 C-174.82534368 170.69610527 -181.87304366 168.13390262 -188.96484375 165.71484375 C-190.54267506 165.18045556 -192.12064569 164.6464786 -193.69874573 164.11288452 C-197.91002279 162.68766182 -202.11933254 161.25671174 -206.32827759 159.82461929 C-210.69426244 158.34021176 -215.06207668 156.86120676 -219.4296875 155.3815918 C-228.85283836 152.18818 -238.2734404 148.98729878 -247.69332123 145.78425598 C-251.18747907 144.59626474 -254.68187549 143.40897593 -258.17626953 142.22167969 C-276.52563301 135.98634848 -276.52563301 135.98634848 -284.28100586 133.34155273 C-296.50330538 129.17501475 -308.74433039 125.06734623 -321 121 C-321 120.34 -321 119.68 -321 119 C-319.95175049 118.6189209 -318.90350098 118.2378418 -317.82348633 117.84521484 C-299.32579233 111.11656438 -280.83786017 104.36613984 -262.4375 97.375 C-259.37243271 96.21084038 -256.30734945 95.04672287 -253.2421875 93.8828125 C-252.04178833 93.42698288 -252.04178833 93.42698288 -250.81713867 92.96194458 C-239.57612878 88.69665215 -228.3195439 84.47275388 -217.0625 80.25 C-215.9023941 79.81472992 -214.74228821 79.37945984 -213.54702759 78.93099976 C-198.81345896 73.4048863 -184.07011098 67.90570846 -169.31640625 62.43359375 C-168.19566869 62.01790792 -168.19566869 62.01790792 -167.05228996 61.59382439 C-163.26360603 60.18866609 -159.47484632 58.78371219 -155.68606567 57.3788147 C-125.86557509 46.32707686 -125.86557509 46.32707686 -96.125 35.0625 C-77.96344028 28.10871154 -59.77308144 21.23210533 -41.57098389 14.38522339 C-38.24282945 13.13309836 -34.91560607 11.87854573 -31.58917236 10.62185669 C-27.65619391 9.13613483 -23.72144441 7.65520513 -19.78529549 6.17790413 C-18.31398245 5.62478871 -16.84330464 5.06998043 -15.37328911 4.51342583 C-13.34503588 3.74588585 -11.31457898 2.98449298 -9.28344727 2.22460938 C-7.56485252 1.57752014 -7.56485252 1.57752014 -5.8115387 0.9173584 C-3 0 -3 0 0 0 Z " fill="#67C4EC" transform="translate(322,1)"/>
<path d="M0 0 C14.07238722 12.96140928 19.46571227 33.25238303 20.37402344 51.77978516 C21.17710243 78.60361508 18.60816539 105.05412751 -0.4375 125.5625 C-5.64185946 130.53029767 -11.09722139 133.59414767 -17.75 136.25 C-18.55308594 136.58902344 -19.35617187 136.92804688 -20.18359375 137.27734375 C-32.00020447 141.38007099 -48.62502728 141.21878431 -60.19140625 136.53515625 C-70.78680982 131.21319018 -70.78680982 131.21319018 -73.75 128.25 C-74.08 151.68 -74.41 175.11 -74.75 199.25 C-88.61 199.25 -102.47 199.25 -116.75 199.25 C-116.75 130.94 -116.75 62.63 -116.75 -7.75 C-107.15652872 -10.14836782 -93.73273665 -10.36969314 -84.75 -5.75 C-80.98651567 -3.16569369 -78.28371932 -0.55057898 -75.75 3.25 C-75.15574219 2.73050781 -74.56148437 2.21101562 -73.94921875 1.67578125 C-52.88989947 -16.04286841 -22.00368977 -17.2606722 0 0 Z M-70.4921875 24.75 C-74.09905432 29.52598917 -74.87849693 32.65051079 -75.0222168 38.55395508 C-75.05441818 39.85573196 -75.08661957 41.15750885 -75.11979675 42.49873352 C-75.22173418 47.66595547 -75.29660777 52.83357116 -75.35025311 58.00151539 C-75.39126121 61.92355022 -75.45171498 65.84309465 -75.55932617 69.76391602 C-75.66316879 73.56075207 -75.71766415 77.35536689 -75.73771095 81.15353966 C-75.75362342 82.59745292 -75.78681115 84.04128644 -75.83786583 85.48438454 C-75.98696053 89.90994442 -75.98405172 93.98074038 -74.75 98.25 C-71.77596321 101.25983848 -68.68296384 102.78350532 -64.75 104.25 C-63.68394531 104.69601563 -62.61789062 105.14203125 -61.51953125 105.6015625 C-53.92511685 107.37966234 -45.74047908 107.30326058 -38.74609375 103.6328125 C-29.53152469 97.24933413 -26.19274677 87.65995243 -24.15795898 77.06884766 C-23.42584889 72.01023419 -23.42190436 66.97789367 -23.4375 61.875 C-23.42138672 60.82828125 -23.40527344 59.7815625 -23.38867188 58.703125 C-23.38217136 48.17228897 -24.90421176 35.64975321 -32.31640625 27.53515625 C-38.67138526 21.72042154 -44.79714309 19.73890749 -53.25 19.875 C-53.97058594 19.86339844 -54.69117188 19.85179687 -55.43359375 19.83984375 C-61.16688028 19.87094657 -66.01271698 20.89323615 -70.4921875 24.75 Z " fill="#044D80" transform="translate(804.75,128.75)"/>
<path d="M0 0 C5.05271963 4.26624638 8.21319122 8.59587934 9.03515625 15.30859375 C8.0766561 25.37284536 1.46666581 32.27646522 -5.33984375 39.24609375 C-8.6291092 37.80704011 -10.78236648 35.99544654 -13.33984375 33.49609375 C-24.58070193 23.40673811 -40.55474466 18.37744967 -55.6015625 18.98828125 C-70.44305503 20.38562577 -81.79010899 26.32694554 -91.45703125 37.71875 C-105.79223555 56.96123378 -106.64875665 85.02077825 -103.7265625 107.90234375 C-101.11556143 124.18552398 -94.40995265 139.93908403 -80.8984375 150.078125 C-68.45026739 158.08469451 -52.75060862 160.07191855 -38.328125 157.0859375 C-28.33833187 154.27834858 -20.38592168 150.15866706 -12.60180664 143.41015625 C-8.91357332 140.29130321 -8.91357332 140.29130321 -6.2578125 140.08203125 C-3.3110016 141.87052341 -1.64075506 144.4876287 0.22265625 147.30859375 C0.61888184 147.89987061 1.01510742 148.49114746 1.42333984 149.1003418 C5.39077764 155.15577409 8.75803982 160.79165041 7.34375 168.2421875 C4.46500036 176.68103644 -2.7335197 181.33781921 -10.33984375 185.24609375 C-24.69602168 191.52266917 -39.19712125 193.79044399 -54.77734375 193.62109375 C-55.4530542 193.61644104 -56.12876465 193.61178833 -56.82495117 193.60699463 C-81.81744594 193.40558504 -103.83567877 186.82372686 -122.33984375 169.24609375 C-145.33899015 143.8959235 -149.73848908 110.22705305 -148.33984375 77.24609375 C-146.51798552 52.81199955 -139.28385304 30.13535519 -123.33984375 11.24609375 C-122.72753906 10.52035156 -122.11523438 9.79460937 -121.484375 9.046875 C-92.29753081 -22.62925228 -33.81348593 -24.84683662 0 0 Z " fill="#044D80" transform="translate(499.33984375,74.75390625)"/>
<path d="M0 0 C10.44522303 10.16241013 13.69029064 23.7599597 14.20053101 38.05447388 C14.21182044 39.41144758 14.2181588 40.76846918 14.22021484 42.12548828 C14.22529556 42.87470047 14.23037628 43.62391266 14.23561096 44.39582825 C14.24623779 46.00917556 14.25488749 47.6225369 14.26173019 49.23590469 C14.27364654 51.80284211 14.29313173 54.36962068 14.31484985 56.93649292 C14.37602962 64.23039339 14.4303226 71.52427501 14.46386719 78.81835938 C14.48499845 83.29517784 14.52044368 87.77170058 14.56462479 92.24834824 C14.57863698 93.9393042 14.58747318 95.63031241 14.59067917 97.32132339 C14.61722873 109.98716785 15.18646183 121.6751807 21.0625 133.1875 C21.0625 133.8475 21.0625 134.5075 21.0625 135.1875 C14.5022619 138.08781579 8.00768045 138.54191305 0.9375 138.625 C0.0909082 138.64691406 -0.75568359 138.66882813 -1.62792969 138.69140625 C-8.11192289 138.67118327 -13.64756232 137.30547323 -18.46484375 132.73999023 C-20.76559266 130.08954416 -22.43206399 127.33399689 -23.9375 124.1875 C-24.824375 125.05375 -25.71125 125.92 -26.625 126.8125 C-38.06255634 136.48867267 -54.22758855 139.94737517 -68.9453125 139.46875 C-81.42664426 138.29556999 -94.68763043 134.91901877 -103.41015625 125.30078125 C-112.08374967 113.29972233 -114.21088594 100.6014288 -112.9375 86.1875 C-110.91272524 74.2438919 -105.13981931 66.16063307 -95.625 58.875 C-75.50406773 45.15743712 -49.72383597 42.75848793 -25.9375 43.1875 C-26.60380391 32.22435106 -26.60380391 32.22435106 -31.9375 23.1875 C-41.24377989 16.7384113 -55.1303775 18.08065081 -65.78125 19.8125 C-73.22227515 21.723956 -79.91488701 24.92907436 -86.61035156 28.6328125 C-91.35649944 31.19933702 -91.35649944 31.19933702 -94.23828125 31.140625 C-99.13517724 28.39386035 -101.69473322 21.24200189 -103.42578125 16.12890625 C-104.27065748 12.92353612 -104.42408804 10.47196924 -103.9375 7.1875 C-95.42588518 -4.65138243 -79.56039997 -8.06182544 -65.9375 -10.8125 C-44.94298799 -14.23575376 -17.10496141 -14.37154912 0 0 Z M-42.25 66.4375 C-43.14912109 66.54707031 -44.04824219 66.65664062 -44.97460938 66.76953125 C-53.65846692 67.96254132 -63.53453826 70.94928806 -69.37890625 77.90234375 C-73.36149085 83.63227316 -74.56351203 88.87714633 -73.5625 95.76953125 C-72.25367411 101.22569917 -70.35602524 104.70708504 -65.82421875 108.0703125 C-59.49645074 111.81718962 -52.80869166 112.04129666 -45.8203125 110.5 C-37.64920925 108.23549102 -30.75473142 105.41334714 -25.9375 98.1875 C-25.7662086 95.64520403 -25.70507066 93.21560519 -25.7421875 90.67578125 C-25.74643234 89.58344429 -25.74643234 89.58344429 -25.75076294 88.46903992 C-25.76194743 86.14585863 -25.78704834 83.82306453 -25.8125 81.5 C-25.82253206 79.9238337 -25.83165752 78.34766135 -25.83984375 76.77148438 C-25.86188104 72.91000733 -25.89639859 69.04881929 -25.9375 65.1875 C-31.48694854 65.12116592 -36.76222157 65.68404705 -42.25 66.4375 Z " fill="#044D80" transform="translate(639.9375,128.8125)"/>
<path d="M0 0 C9.84214294 8.61187507 14.46057647 20.16678564 15.37115479 33.06286621 C15.56474946 37.36975783 15.55407604 41.67410728 15.5390625 45.984375 C15.54901267 47.57653121 15.56096989 49.16867598 15.57479858 50.76080322 C15.60683607 54.91594398 15.61751999 59.07082219 15.62164307 63.22607422 C15.63151138 70.64561227 15.67204052 78.06504135 15.7265625 85.484375 C15.7321455 86.2707132 15.7377285 87.05705139 15.74348068 87.86721802 C15.60420653 109.89704282 15.60420653 109.89704282 21.1953125 130.96875 C22 133 22 133 22 136 C15.53223718 138.79327546 9.26538236 139.32670212 2.3125 139.375 C1.50514404 139.38853516 0.69778809 139.40207031 -0.1340332 139.41601562 C-6.79613707 139.36676298 -11.53667683 138.07143085 -16.75 133.6875 C-19.06022019 130.92807033 -20.54942902 128.28287118 -22 125 C-22.52207031 125.44730469 -23.04414062 125.89460937 -23.58203125 126.35546875 C-37.02929236 137.40059215 -53.75462594 141.50687735 -71 140 C-84.16072196 138.25300151 -95.66107966 133.7079318 -104 123 C-111.72354751 110.44923529 -113.10349454 95.81626455 -110.3125 81.46484375 C-106.14718727 69.12510478 -96.67823648 60.23331592 -85.375 54.25 C-66.67449219 45.26326298 -44.50730548 43.58219412 -24 44 C-25.35523334 32.18686004 -25.35523334 32.18686004 -32 23 C-38.05355083 20.27959707 -43.79648322 19.50729829 -50.375 19.625 C-51.6276062 19.6413147 -51.6276062 19.6413147 -52.90551758 19.65795898 C-65.79948684 19.98998715 -79.23865625 24.82577083 -90 32 C-92.44921875 32.03125 -92.44921875 32.03125 -95 31 C-96.56979989 28.78952743 -97.68382372 26.92082464 -98.8125 24.5 C-99.11438232 23.86505615 -99.41626465 23.2301123 -99.72729492 22.57592773 C-101.94525804 17.65191211 -103.62290806 13.30362112 -102 8 C-98.46986357 0.9104314 -91.0223167 -2.22167516 -84 -5 C-79.05052587 -6.61280941 -74.08196873 -7.87905674 -69 -9 C-68.02160156 -9.226875 -67.04320312 -9.45375 -66.03515625 -9.6875 C-44.84913419 -13.78251634 -17.88195229 -13.41146421 0 0 Z M-66.59765625 77.48828125 C-71.23756779 82.49008005 -72.43866397 87.84536637 -72.33984375 94.48828125 C-71.62383878 99.78013409 -69.36861178 104.94972101 -65.28515625 108.484375 C-58.62121658 112.50898627 -51.33284746 112.94781038 -43.875 111.31640625 C-35.70858641 109.03850616 -28.81763374 106.22645062 -24 99 C-23.8287086 96.45770403 -23.76757066 94.02810519 -23.8046875 91.48828125 C-23.80893234 90.39594429 -23.80893234 90.39594429 -23.81326294 89.28153992 C-23.82444743 86.95835863 -23.84954834 84.63556453 -23.875 82.3125 C-23.88503206 80.7363337 -23.89415752 79.16016135 -23.90234375 77.58398438 C-23.92438104 73.72250733 -23.95889859 69.86131929 -24 66 C-38.39641865 65.8280558 -55.65746522 67.26885575 -66.59765625 77.48828125 Z " fill="#044D80" transform="translate(1455,128)"/>
<path d="M0 0 C12.10887219 10.22201313 17.58760354 23.58812125 20.14453125 38.9296875 C20.14453125 49.4896875 20.14453125 60.0496875 20.14453125 70.9296875 C-9.22546875 70.9296875 -38.59546875 70.9296875 -68.85546875 70.9296875 C-64.40297367 88.55889134 -64.40297367 88.55889134 -53.23046875 102.0546875 C-42.15833333 108.20587384 -29.24876121 108.60159083 -16.97265625 106.15625 C-7.86173777 103.28233612 -1.00930297 98.04966196 6.14453125 91.9296875 C13.25762813 98.75294682 18.85247352 106.75920645 19.14453125 116.9296875 C17.59415199 123.46342868 13.5655974 127.2807251 8.14453125 130.9296875 C-13.98061199 142.47595407 -41.86043602 142.81184691 -65.48046875 135.86328125 C-83.45077251 129.44228828 -95.59104882 117.84113939 -103.85546875 100.9296875 C-113.0479764 80.2465453 -113.84812686 53.10206713 -106.66796875 31.6796875 C-99.62173637 13.71790437 -88.37340891 0.97166224 -70.85546875 -7.0703125 C-47.7810388 -15.82532298 -20.35481425 -14.75793646 0 0 Z M-64.04296875 26.6171875 C-68.01205126 33.87102795 -68.85546875 39.58309207 -68.85546875 47.9296875 C-51.69546875 47.9296875 -34.53546875 47.9296875 -16.85546875 47.9296875 C-18.49391613 32.69039565 -18.49391613 32.69039565 -26.10546875 20.4921875 C-39.55264481 12.85174656 -54.10222405 14.40427258 -64.04296875 26.6171875 Z " fill="#044D80" transform="translate(1068.85546875,129.0703125)"/>
<path d="M0 0 C0 27.06 0 54.12 0 82 C-26.73 82.33 -53.46 82.66 -81 83 C-74.42172275 99.36650088 -74.42172275 99.36650088 -67.8359375 115.72998047 C-67.01535158 117.77560649 -66.19502133 119.82133509 -65.375 121.8671875 C-64.94316406 122.93654541 -64.51132813 124.00590332 -64.06640625 125.10766602 C-63.66035156 126.12256104 -63.25429687 127.13745605 -62.8359375 128.18310547 C-62.48063965 129.06690887 -62.1253418 129.95071228 -61.75927734 130.86129761 C-61 133 -61 133 -61 135 C-69.58289406 133.35880945 -77.71469305 130.5290235 -85.96484375 127.71484375 C-87.54267506 127.18045556 -89.12064569 126.6464786 -90.69874573 126.11288452 C-94.91002279 124.68766182 -99.11933254 123.25671174 -103.32827759 121.82461929 C-107.69426244 120.34021176 -112.06207668 118.86120676 -116.4296875 117.3815918 C-125.85283836 114.18818 -135.2734404 110.98729878 -144.69332123 107.78425598 C-148.18747907 106.59626474 -151.68187549 105.40897593 -155.17626953 104.22167969 C-173.52563301 97.98634848 -173.52563301 97.98634848 -181.28100586 95.34155273 C-193.50330538 91.17501475 -205.74433039 87.06734623 -218 83 C-218 82.34 -218 81.68 -218 81 C-216.95175049 80.6189209 -215.90350098 80.2378418 -214.82348633 79.84521484 C-196.32579233 73.11656438 -177.83786017 66.36613984 -159.4375 59.375 C-156.37243271 58.21084038 -153.30734945 57.04672287 -150.2421875 55.8828125 C-149.04178833 55.42698288 -149.04178833 55.42698288 -147.81713867 54.96194458 C-136.57612927 50.69665233 -125.31957892 46.4726594 -114.0625 42.25 C-112.91203186 41.81838562 -111.76156372 41.38677124 -110.57623291 40.94207764 C-86.88107776 32.05572848 -63.15836305 23.24365257 -39.42928123 14.44835281 C-36.51253451 13.3671474 -33.5959914 12.28539333 -30.67946625 11.20359039 C-28.69166548 10.46656294 -26.70353935 9.73041854 -24.71539307 8.99432373 C-17.59613661 6.35381087 -10.50093093 3.66375239 -3.42765808 0.90258789 C-1 0 -1 0 0 0 Z " fill="#FE9C28" transform="translate(219,39)"/>
<path d="M0 0 C5.64582683 4.72673874 8.59993768 8.95710163 9.6875 16.25 C9.91566375 20.75480812 9.87641338 25.24099602 9.8125 29.75 C9.77125 33.875 9.73 38 9.6875 42.25 C23.5475 42.25 37.4075 42.25 51.6875 42.25 C51.6875 52.48 51.6875 62.71 51.6875 73.25 C37.8275 73.25 23.9675 73.25 9.6875 73.25 C9.74930997 85.67405134 9.74930997 85.67405134 9.84765625 98.09765625 C9.89590005 103.16911095 9.93997877 108.24034999 9.95849609 113.31201172 C9.97370513 117.40363413 10.00822493 121.49469013 10.05580902 125.58605957 C10.07057928 127.14240581 10.07853851 128.69883293 10.07938385 130.25524902 C10.03451345 141.85145109 10.03451345 141.85145109 14.6875 152.25 C18.45526175 155.4944615 22.78415894 156.37858412 27.6875 156.25 C34.32683009 155.14701452 39.35385518 152.49562365 44.6796875 148.45703125 C46.6875 147.25 46.6875 147.25 50.6875 147.25 C52.57421875 149.76953125 52.57421875 149.76953125 54.375 153.0625 C54.97699219 154.14144531 55.57898438 155.22039062 56.19921875 156.33203125 C58.78545026 161.40267413 59.3341664 165.64234063 58.6875 171.25 C55.57877465 178.31528488 48.50784595 182.65658938 41.578125 185.546875 C25.86364658 190.94139744 5.03860487 192.59382215 -10.3125 185.25 C-20.23784199 180.20295593 -26.81898463 171.7546053 -30.3125 161.25 C-32.43039986 152.18299252 -32.5891112 143.2004043 -32.53955078 133.93457031 C-32.53898527 132.43528247 -32.53930595 130.93599407 -32.54043579 129.43670654 C-32.54100486 125.40443819 -32.52932353 121.3722911 -32.51528788 117.3400507 C-32.50270546 113.11202182 -32.50160414 108.88398954 -32.49923706 104.65594482 C-32.49304422 96.6664757 -32.4766634 88.67706192 -32.45653808 80.68761706 C-32.43411038 71.58473864 -32.42316844 62.48185744 -32.41314721 53.37895823 C-32.392295 34.66927422 -32.35716214 15.95964157 -32.3125 -2.75 C-21.43505017 -4.14285266 -10.03094208 -5.29936563 0 0 Z " fill="#044D80" transform="translate(884.3125,78.75)"/>
<path d="M0 0 C27.39 0 54.78 0 83 0 C83 68.31 83 136.62 83 207 C80.4115627 205.70578135 80.29571902 204.72888176 79.24143982 202.06900024 C78.90144958 201.22103882 78.56145935 200.37307739 78.21116638 199.49942017 C77.84298294 198.56069061 77.4747995 197.62196106 77.09545898 196.65478516 C76.70307037 195.6703241 76.31068176 194.68586304 75.90640259 193.67156982 C74.5963684 190.37998031 73.29625559 187.08456273 71.99609375 183.7890625 C71.07620027 181.47188162 70.15570344 179.15494018 69.2346344 176.83822632 C67.03987064 171.31348821 64.85133695 165.7863213 62.66572195 160.25796068 C60.01063773 153.54318047 57.34606813 146.83217121 54.68164062 140.12109375 C50.4488122 129.45650242 46.22485942 118.78842475 42.00525475 108.11859512 C39.41719392 101.57604524 36.82355752 95.03575547 34.22297955 88.49817085 C32.66634861 84.5844887 31.112079 80.66987104 29.55809212 76.7551384 C28.85085849 74.97525366 28.1425516 73.19579489 27.43301201 71.41682816 C23.78178785 62.26099023 20.26776228 53.08474185 17.02876949 43.77444267 C15.2072708 38.54522569 13.24873643 33.39733247 11.1328125 28.28125 C10.80836151 27.48642212 10.48391052 26.69159424 10.14962769 25.87268066 C9.1452023 23.41355033 8.13549834 20.95664024 7.125 18.5 C6.09394087 15.98589084 5.0640554 13.47131338 4.03610229 10.95593262 C3.4037542 9.40930033 2.76948851 7.86345033 2.13308716 6.31848145 C0 1.11135396 0 1.11135396 0 0 Z " fill="#054E81" transform="translate(137,121)"/>
<path d="M0 0 C3.16000656 2.6333388 4.7021256 4.10637681 6 8 C7.0037278 20.44622477 1.8028476 31.26473194 -4 42 C-4.89203125 41.50628906 -5.7840625 41.01257813 -6.703125 40.50390625 C-7.88528608 39.85653232 -9.06758504 39.20941011 -10.25 38.5625 C-10.83652344 38.23701172 -11.42304687 37.91152344 -12.02734375 37.57617188 C-18.67869003 33.95156183 -24.46221531 33.14252714 -32 34 C-38.61890288 36.00062884 -42.36614847 38.7980662 -45.92358971 44.65826416 C-47.8075206 48.75676499 -47.70131442 52.73275591 -47.65942383 57.1796875 C-47.67514938 58.65910576 -47.67514938 58.65910576 -47.69119263 60.16841125 C-47.71982293 63.40426559 -47.71366496 66.63904231 -47.70703125 69.875 C-47.7201535 72.12802463 -47.73545933 74.38103751 -47.75285339 76.6340332 C-47.79265406 82.54577865 -47.80289074 88.45721598 -47.80688477 94.36907959 C-47.81622539 100.40890826 -47.85364486 106.44855659 -47.88867188 112.48828125 C-47.95319796 124.32555498 -47.98388217 136.16256127 -48 148 C-61.86 148 -75.72 148 -90 148 C-90 99.49 -90 50.98 -90 1 C-79.56917307 -1.60770673 -66.47504272 -1.46444262 -57 4 C-54.50604969 5.8692426 -52.95779446 7.5130719 -51 10 C-51 10.99 -51 11.98 -51 13 C-50.52691406 12.56429687 -50.05382813 12.12859375 -49.56640625 11.6796875 C-36.26692991 -0.29761868 -17.74019288 -9.71486753 0 0 Z " fill="#044D80" transform="translate(1210,120)"/>
<path d="M0 0 C3.62236947 3.14441794 5.85125775 6.45308061 6.3125 11.25 C6.13337344 22.23642923 1.1872368 32.55922902 -4 42 C-4.72445313 41.59007812 -5.44890625 41.18015625 -6.1953125 40.7578125 C-15.51109173 35.56581821 -23.71777751 31.75397356 -34.53515625 34.6875 C-39.7982032 36.79623334 -42.81868583 39.32744481 -46 44 C-46.91184911 46.73554733 -47.13370966 48.37661135 -47.15821838 51.19511414 C-47.17290161 52.47604446 -47.17290161 52.47604446 -47.18788147 53.78285217 C-47.19363693 54.71649094 -47.1993924 55.6501297 -47.20532227 56.61206055 C-47.21522186 57.59760925 -47.22512146 58.58315796 -47.23532104 59.59857178 C-47.2669481 62.86126287 -47.29169832 66.12396852 -47.31640625 69.38671875 C-47.33697473 71.6468799 -47.35797117 73.9070372 -47.37937927 76.16719055 C-47.43461086 82.12001424 -47.48401539 88.0728727 -47.53222656 94.02575684 C-47.58243361 100.09858297 -47.63812384 106.17135851 -47.69335938 112.24414062 C-47.80095428 124.16271883 -47.90188975 136.08133994 -48 148 C-61.86 148 -75.72 148 -90 148 C-90 99.49 -90 50.98 -90 1 C-80.34721604 -1.41319599 -68.42741975 -1.30807028 -59.21484375 2.65234375 C-55.70905171 4.78549764 -53.07124955 7.45178346 -51 11 C-51 11.66 -51 12.32 -51 13 C-50.071875 11.9790625 -50.071875 11.9790625 -49.125 10.9375 C-36.61730916 -1.53465763 -16.7933386 -8.61930826 0 0 Z " fill="#044D7F" transform="translate(1326,120)"/>
<path d="M0 0 C0.66 0.33 1.32 0.66 2 1 C3.73555183 1.1050016 5.47508932 1.14658282 7.21377563 1.15821838 C8.31877914 1.1680072 9.42378265 1.17779602 10.56227112 1.18788147 C12.38890541 1.19651466 12.38890541 1.19651466 14.25244141 1.20532227 C16.1694561 1.22017166 16.1694561 1.22017166 18.12519836 1.23532104 C21.63527845 1.26239875 25.14537201 1.28339276 28.65549898 1.30332303 C32.32173919 1.32516494 35.9879377 1.3525624 39.65414429 1.37937927 C46.59912607 1.42933048 53.54413097 1.47426028 60.48915803 1.51740164 C68.39476467 1.56675329 76.30032947 1.62167909 84.20589566 1.67708123 C100.47055856 1.79093854 116.73525978 1.89776939 133 2 C135.14811606 6.22162699 137.2689507 10.4160626 139.01464844 14.82373047 C139.3546991 15.67756317 139.69474976 16.53139587 140.04510498 17.41110229 C140.57191864 18.75061447 140.57191864 18.75061447 141.109375 20.1171875 C141.48104797 21.0555545 141.85272095 21.99392151 142.23565674 22.96072388 C143.01385736 24.92819392 143.7902608 26.89637569 144.56494141 28.86523438 C145.75544912 31.88883947 146.95351837 34.90937202 148.15234375 37.9296875 C148.90930557 39.84617593 149.66583173 41.76283652 150.421875 43.6796875 C150.96083405 45.03741776 150.96083405 45.03741776 151.51068115 46.4225769 C151.83812317 47.25749664 152.16556519 48.09241638 152.50292969 48.95263672 C152.79286804 49.68795624 153.0828064 50.42327576 153.38153076 51.18087769 C154 53 154 53 154 55 C145.41710594 53.35880945 137.28530695 50.5290235 129.03515625 47.71484375 C127.45732494 47.18045556 125.87935431 46.6464786 124.30125427 46.11288452 C120.08997721 44.68766182 115.88066746 43.25671174 111.67172241 41.82461929 C107.30573756 40.34021176 102.93792332 38.86120676 98.5703125 37.3815918 C89.14716164 34.18818 79.7265596 30.98729878 70.30667877 27.78425598 C66.81252093 26.59626474 63.31812451 25.40897593 59.82373047 24.22167969 C41.47436699 17.98634848 41.47436699 17.98634848 33.71899414 15.34155273 C21.49669462 11.17501475 9.25566961 7.06734623 -3 3 C-3 2.34 -3 1.68 -3 1 C-2.01 0.67 -1.02 0.34 0 0 Z " fill="#E34847" transform="translate(4,119)"/>
</svg>
