<svg viewBox="21.119999999999997 391.67999999999995 927.36 172.79999999999998" xmlns="http://www.w3.org/2000/svg" data-name="Layer 1" id="Layer_1" style="max-height: 500px" width="927.36" height="172.79999999999998">
  <defs>
    <style>
      .cls-1 {
        fill: #fd810b;
      }

      .cls-1, .cls-2 {
        fill-rule: evenodd;
        stroke-width: 0px;
      }

      .cls-2 {
        fill: #030000;
      }
    </style>
  </defs>
  <path d="M827.98,440.71c0-4.47,3.66-8.13,8.13-8.13h59.94c4.47,0,8.13,3.66,8.13,8.13v29.43c0,4.47-3.66,8.13-8.13,8.13h-6.24c-4.47,0-11.28,1.77-15.23,3.95l-21.76,12.08c-3.89,2.18-5.55.63-3.72-3.44l2.52-5.5c1.83-4.06-.29-7.39-4.75-7.39h-10.82c-4.47,0-8.13-3.66-8.13-8.13v-29.14" class="cls-1" id="Fill-1"/>
  <g>
    <path d="M828.03,517.26c.46,0,.86-.06,1.2-.23.29-.17.46-.46.46-1.03,0-.29-.06-.52-.17-.63-.11-.17-.29-.29-.46-.34s-.4-.11-.63-.17c-.23,0-.46-.06-.63-.06h-1.43v2.46h1.66ZM828.03,513.08c1.26,0,2.23.29,2.86.8s.97,1.32.97,2.29c0,.86-.23,1.49-.69,1.95-.46.46-1.03.74-1.72.8l2.46,4.06h-2.4l-2.35-4.01h-.8v4.01h-2.18v-9.9h3.84ZM821.85,520.58c.34.8.74,1.49,1.32,2.12.57.57,1.26,1.09,2,1.43.8.34,1.66.52,2.58.52s1.77-.17,2.58-.52c.8-.34,1.49-.8,2-1.43.57-.57,1.03-1.32,1.32-2.12.34-.8.46-1.66.46-2.52,0-.92-.17-1.72-.46-2.52-.34-.8-.74-1.49-1.32-2.12-.57-.57-1.26-1.09-2.06-1.43s-1.66-.52-2.58-.52-1.77.17-2.58.52c-.8.34-1.49.8-2.06,1.43-.57.57-1.03,1.32-1.32,2.12-.34.8-.46,1.66-.46,2.52.06.92.23,1.72.57,2.52ZM819.27,514.45c.46-1.15,1.15-2.12,1.95-2.92.8-.86,1.77-1.49,2.92-1.95,1.09-.46,2.29-.74,3.61-.74s2.46.23,3.61.69c1.09.46,2.12,1.15,2.92,1.95.86.86,1.49,1.83,1.95,2.92.46,1.09.74,2.29.74,3.61s-.23,2.46-.69,3.61c-.46,1.15-1.15,2.06-1.95,2.92-.86.8-1.83,1.49-2.92,1.95-1.09.46-2.29.69-3.61.69s-2.46-.23-3.61-.69-2.12-1.09-2.92-1.95c-.86-.8-1.49-1.77-2-2.92-.46-1.09-.74-2.29-.74-3.61.06-1.2.29-2.4.74-3.55Z" class="cls-2" id="Fill-21"/>
    <path d="M797.69,490.52h-13.22c-.97,0-1.32-.63-1.32-1.32l.11-1.72c.23-3.49,3.55-6.07,7.9-6.07s7.61,2.52,7.9,5.95l.11,1.72c0,.8-.29,1.43-1.49,1.43ZM790.65,467.56c-14.31,0-24.5,10.31-24.5,22.1v15.63c0,13.11,9.73,22.21,24.5,22.21,8.02,0,13.8-2.81,17.92-6.81,1.95-1.95,3.49-4.24,4.87-6.53.74-1.2.34-2.58-.34-2.92l-12.02-6.07c-.74-.34-1.49-.11-1.83.97-1.66,4.24-4.47,6.18-8.59,6.18-4.47,0-7.67-3.03-7.67-6.93v-2.69c0-.86.34-1.32,1.43-1.32h29.26c.74,0,1.2-.34,1.2-1.2v-10.53c.06-11.68-10.02-22.1-24.22-22.1Z" class="cls-2" id="Fill-19"/>
    <path d="M738.26,482.51c3.78,0,6.53,2.4,8.59,7.27.34.86.97,1.09,1.83.74l11.91-5.32c.74-.34.97-1.09.63-2.06-1.09-2.52-2.29-4.87-3.89-6.81-4.01-5.32-9.96-8.36-19.18-8.36-15.06,0-24.16,9.1-24.16,22.21v14.77c0,13.11,9.1,22.1,24.16,22.1,8.47,0,14.08-2.52,18.09-7.04,2.06-2.29,3.66-5.1,4.98-8.24.34-.97.11-1.6-.63-1.95l-11.91-5.44c-.86-.34-1.43-.11-1.83.74-2.06,4.87-4.87,7.39-8.59,7.39-4.47,0-7.39-3.15-7.39-7.04v-15.92c-.06-3.89,2.86-7.04,7.39-7.04" class="cls-2" id="Fill-18"/>
    <path d="M703.28,469.28h-14.43c-.86,0-1.2.34-1.2,1.2v53.99c0,.86.34,1.2,1.2,1.2h14.43c.69,0,1.09-.34,1.09-1.2v-53.99c0-.86-.52-1.2-1.09-1.2" class="cls-2" id="Fill-17"/>
    <path d="M695.96,445.46c-4.69,0-8.53,3.84-8.53,8.53s3.84,8.53,8.53,8.53,8.53-3.84,8.53-8.53-3.78-8.53-8.53-8.53" class="cls-2" id="Fill-20"/>
    <path d="M680.04,469.28h-15.4c-.63,0-1.09.34-1.32.97l-9.1,26.11c-.46,1.32-1.2,4.47-1.43,6.07h-.34c-.23-1.6-.86-4.47-1.43-6.07l-9.45-26.22c-.23-.63-.57-.86-1.2-.86h-15.4c-1.09,0-1.43.74-1.09,1.72l21.7,53.87c.23.57.69.86,1.2.86h11.28c.63,0,1.09-.23,1.32-.86l21.81-53.87c.34-.97,0-1.72-1.14-1.72" class="cls-2" id="Fill-16"/>
    <path d="M600.52,504.72c0,4.01-3.26,7.04-7.5,7.04s-7.39-3.03-7.39-7.04v-14.54c0-3.89,3.03-6.81,7.39-6.81s7.5,2.92,7.5,6.81v14.54ZM616.03,449.24h-14.31c-.57,0-1.2.34-1.2,1.2v16.89c0,1.83.34,5.32.34,5.32-2.4-2.18-6.41-3.38-9.33-3.38-13.22,0-22.79,8.87-22.79,22.1v12.25c0,14.08,8.24,22.1,23.07,22.1,3.38,0,7.39-1.09,9.96-3.26.74-.63,1.6-.4,1.6.57v1.83c0,.46.34.86.97.86h11.74c.74,0,1.2-.34,1.2-1.2v-74.08c-.06-.8-.52-1.2-1.26-1.2Z" class="cls-2" id="Fill-15"/>
    <path d="M537.2,499.62h-7.39c-1.2,0-1.72-.74-1.43-1.43l2.52-9.85c1.2-4.47,2.18-9.85,2.4-13h.52c.23,3.15.97,8.47,2.18,13l2.58,9.85c.23.69-.29,1.43-1.37,1.43ZM540.12,450.1c-.23-.63-.63-.86-1.2-.86h-10.82c-.74,0-.97.23-1.2.86l-23.87,74.03c-.34.97.11,1.6,1.2,1.6h15.29c.63,0,.86-.23,1.09-.86l3.49-11.05c.23-.63.46-.74,1.32-.74h16.03c.86,0,1.09.11,1.32.74l3.38,11.05c.23.57.52.86,1.2.86h15.4c1.2,0,1.6-.63,1.2-1.6l-23.82-74.03Z" class="cls-2" id="Fill-14"/>
    <path d="M459.45,490.52h-13.22c-.97,0-1.32-.63-1.32-1.32l.11-1.72c.23-3.49,3.55-6.07,7.9-6.07s7.67,2.52,7.9,5.95l.11,1.72c-.06.8-.29,1.43-1.49,1.43ZM452.41,467.56c-14.31,0-24.5,10.31-24.5,22.1v15.63c0,13.11,9.68,22.21,24.5,22.21,8.02,0,13.85-2.81,17.98-6.81,1.95-1.95,3.55-4.24,4.87-6.53.74-1.2.34-2.58-.34-2.92l-12.02-6.07c-.74-.34-1.43-.11-1.83.97-1.72,4.24-4.47,6.18-8.59,6.18-4.47,0-7.67-3.03-7.67-6.93v-2.69c0-.86.34-1.32,1.49-1.32h29.26c.74,0,1.2-.34,1.2-1.2v-10.53c-.06-11.68-10.13-22.1-24.33-22.1Z" class="cls-2" id="Fill-13"/>
    <path d="M420.64,469.51c-.86-.11-1.83-.23-3.15-.23-4.58,0-8.99,2.18-10.93,4.58-.63.57-1.6.52-1.6-.57v-2.81c0-.86-.34-1.2-1.2-1.2h-11.51c-.74,0-1.2.34-1.2,1.2v53.99c0,.86.46,1.2,1.2,1.2h14.31c.74,0,1.2-.34,1.2-1.2v-32.17c0-4.24,3.03-7.27,7.27-7.27,1.83,0,3.38.23,4.87.63,1.09.23,1.83-.11,1.83-1.2v-13.74c0-.57-.4-1.09-1.09-1.2" class="cls-2" id="Fill-12"/>
    <path d="M356.29,512.56h-4.47c-2.58,0-4.01-1.6-4.01-4.98,0-2.4,1.72-4.12,4.12-4.12h10.31c.74,0,.97,1.32.97,1.72-.29,4.47-3.66,7.39-6.93,7.39ZM355.94,467.96c-7.5,0-13.11,2.4-17.23,6.18-2.29,2.06-4.12,4.47-5.55,7.16-.74,1.2-.34,2.58.34,2.92l12.02,6.07c.74.34,1.43.11,1.83-.97,1.72-4.24,4.47-6.18,8.59-6.18,4.47,0,7.27,3.03,7.27,6.93v.63c0,.86-.34,1.32-1.2,1.32h-10.71c-10.65,0-19.29,5.84-19.29,16.03v1.2c0,10.31,7.79,16.49,18.21,16.49h4.24c3.26,0,6.93-1.09,9.45-3.15.46-.34,1.09-.23,1.2.11l.34,2.06c.11.63.63.97,1.32.97h11.91c.74,0,1.2-.34,1.2-1.2v-34.35c.06-13.11-9.16-22.21-23.93-22.21Z" class="cls-2" id="Fill-11"/>
    <path d="M327.15,469.28h-14.66c-.74,0-1.2.34-1.32.97l-5.44,22.79c-.63,2.58-1.09,6.18-1.2,8.76h-.4c-.11-2.58-.63-5.84-1.32-8.76l-5.5-22.79c-.11-.63-.63-.97-1.32-.97h-12.02c-.74,0-1.09.34-1.2.97l-5.32,22.67c-.63,2.52-1.09,5.84-1.32,8.24h-.34c-.11-2.4-.57-5.73-1.2-8.24l-5.67-22.67c-.11-.63-.46-.97-1.2-.97h-15.06c-1.09,0-1.49.63-1.09,1.6l17.12,53.99c.23.57.63.86,1.2.86h10.71c.74,0,1.09-.23,1.2-.86l6.7-25.13c.74-2.81,1.32-7.5,1.32-7.5h.34s.63,4.75,1.32,7.5l6.53,24.96c.11.63.46.97,1.2.97h10.53c.63,0,.97-.23,1.2-.86l17.35-53.99c.34-.8-.06-1.55-1.15-1.55" class="cls-2" id="Fill-10"/>
    <path d="M245.34,469.28h-8.13c-1.09,0-1.43-.34-1.43-1.2v-7.67c0-.86-.23-1.09-1.09-1.09h-7.67c-.46,0-1.09.23-1.43.63l-15.17,15.17v8.24c0,.86.34,1.09,1.2,1.09h6.07c1.09,0,1.43.52,1.43,1.32v18.95c0,14.54,9.1,22.1,20.61,22.1h5.1c1.09,0,1.6-.46,1.6-1.32v-12.48c0-.74-.34-1.2-1.2-1.2h-2.06c-4.98,0-7.39-3.03-7.39-8.24v-17.8c0-.86.34-1.32,1.43-1.32h8.13c.86,0,1.09-.23,1.09-1.09v-12.88c0-.86-.23-1.2-1.09-1.2" class="cls-2" id="Fill-9"/>
    <path d="M209.1,448.67c-2.06-.46-5.44-.86-8.59-.86-17.98,0-24.73,12.48-24.73,22.33v3.03c0,.86-.34,1.2-1.32,1.2h-2.81c-.74,0-1.2.34-1.2,1.2v12.77c0,.86.46,1.2,1.2,1.2h2.81c1.09,0,1.32.34,1.32,1.2v33.72c0,.86.34,1.2,1.2,1.2h14.31c.86,0,1.2-.34,1.2-1.2v-33.72c0-.86.34-1.2,1.32-1.2h7.84c.86,0,1.2-.34,1.2-1.2v-12.77c0-.86-.34-1.2-1.2-1.2h-7.9c-.97,0-1.32-.34-1.32-1.2v-3.26c0-4.24,3.03-6.93,7.61-6.93,1.6,0,3.26.23,4.58.63.86.23,1.32,0,1.6-.74l3.78-12.48c.29-.86.06-1.49-.92-1.72" class="cls-2" id="Fill-8"/>
    <path d="M146.35,505.41c0,3.89-3.15,7.04-7.39,7.04-4.47,0-7.67-3.15-7.67-7.04v-15.86c0-3.78,3.15-7.04,7.67-7.04,4.24,0,7.39,3.15,7.39,7.04v15.86ZM138.96,467.96c-14.83,0-24.5,9.1-24.5,22.21v14.77c0,13.11,9.68,22.1,24.5,22.1s24.27-8.87,24.27-22.1v-14.77c0-13.28-9.73-22.21-24.27-22.21Z" class="cls-2" id="Fill-7"/>
    <path d="M88.41,480.04c-6.7-2.52-13.85-4.35-13.85-9.79,0-4.35,3.26-7.27,7.5-7.27h1.83c4.12,0,6.93,1.95,8.64,6.18.34,1.09,1.09,1.32,1.83.97l12.02-6.07c.74-.34,1.09-1.72.34-2.92-.97-1.83-2.18-3.61-3.66-5.21-4.24-4.75-10.31-8.13-19.18-8.13h-1.83c-15.17,0-24.5,8.99-24.5,22.67s8.99,19.18,20.15,23.64c7.27,2.92,13.57,4.47,13.57,10.53,0,4.98-3.89,7.16-8.24,7.16h-3.03c-4.12,0-6.93-1.95-8.59-6.18-.34-1.09-1.09-1.32-1.83-.97l-12.02,6.07c-.74.34-1.09,1.72-.34,2.92,1.09,1.95,2.4,3.89,4.01,5.61,4.12,4.58,10.19,7.73,18.78,7.73h3.89c15.4,0,24.39-8.87,24.39-22.56,0-14.14-8.36-19.87-19.87-24.39" class="cls-2" id="Fill-4"/>
  </g>
</svg>