<?xml version="1.0" encoding="UTF-8"?>
<svg version="1.1" xmlns="http://www.w3.org/2000/svg" width="512" height="512">
<path d="M0 0 C6.84200415 3.92433876 9.77681763 12.15920298 13 19.046875 C13.56879379 20.2470929 13.56879379 20.2470929 14.14907837 21.47155762 C15.37511538 24.06209096 16.59394429 26.65594028 17.8125 29.25 C18.66942404 31.06493689 19.5266865 32.87971403 20.38427734 34.69433594 C25.62391687 45.79332135 30.81497074 56.9145948 35.96557617 68.05517578 C39.94922618 76.66586813 43.98460994 85.25121332 48.03942871 93.82858276 C49.11829257 96.1108111 50.19641881 98.39338667 51.27441406 100.67602539 C54.58088591 107.67533103 57.89249454 114.67210633 61.21897888 121.66192627 C62.69294373 124.76118002 64.1628875 127.86233111 65.63217163 130.96380615 C66.32641957 132.42666351 67.02251586 133.88864535 67.72061157 135.34967041 C68.69088021 137.38063821 69.65466501 139.41457088 70.6171875 141.44921875 C71.16358887 142.59737061 71.70999023 143.74552246 72.27294922 144.9284668 C73.46457621 147.69286758 74.47270804 150.37154166 75.40872192 153.22322083 C75.67326738 154.02630582 75.93781284 154.82939081 76.21037483 155.65681171 C76.40907614 156.26506385 76.60777744 156.87331598 76.8125 157.5 C78.11542999 157.66363037 79.41835999 157.82726074 80.76077271 157.99584961 C96.70831077 160.02388442 112.60693607 162.34897705 128.50281668 164.74396896 C130.64590839 165.06682682 132.78907262 165.38919946 134.93225479 165.7114563 C141.67347288 166.72530902 148.41439259 167.74111414 155.15489948 168.75968456 C162.87592657 169.92638333 170.59794908 171.0861909 178.32086551 172.24031544 C184.3443589 173.14091344 190.36690251 174.04768859 196.38877118 174.95908642 C199.96463497 175.50014328 203.54083718 176.03864133 207.1180687 176.57058716 C211.09295 177.16185506 215.06578536 177.76592612 219.03857422 178.37109375 C220.20438019 178.54260956 221.37018616 178.71412537 222.57131958 178.89083862 C240.27597704 181.62128966 240.27597704 181.62128966 245.8125 188.5 C247.72265343 191.65884029 248.13547777 194.13452801 248.1875 197.8125 C248.21585938 198.71613281 248.24421875 199.61976563 248.2734375 200.55078125 C246.98971194 208.76444904 240.58676285 214.11036954 234.91796875 219.65234375 C234.05238846 220.51130753 233.18680817 221.3702713 232.29499817 222.25526428 C229.5370422 224.9899047 226.76911878 227.71416771 224 230.4375 C221.24332651 233.15894598 218.48886362 235.88257639 215.73713684 238.60902405 C214.02855163 240.30082744 212.31688157 241.98952314 210.60160828 243.67454529 C206.39283681 247.83115491 202.38623397 252.06781891 198.5316925 256.55348206 C195.487631 260.00005382 192.20752199 263.20705642 188.9375 266.4375 C187.84526123 267.52405884 187.84526123 267.52405884 186.73095703 268.63256836 C183.65193049 271.69542424 180.56691677 274.75222311 177.48242188 277.80957031 C175.21534542 280.05844117 172.95137034 282.31040238 170.6875 284.5625 C170.00187988 285.23982178 169.31625977 285.91714355 168.60986328 286.61499023 C165.34954736 289.85892868 162.20867477 293.14596658 159.20703125 296.63183594 C156.20603565 300.11116819 153.01874831 303.23780801 149.625 306.328125 C148.50213485 307.38483961 147.38109115 308.44349249 146.26171875 309.50390625 C144.53426581 311.13880828 142.80057835 312.76074355 141.03369141 314.35302734 C139.30344865 315.91853068 137.61937604 317.52346064 135.9375 319.140625 C135.40745361 319.60043762 134.87740723 320.06025024 134.33129883 320.53399658 C131.9751412 322.8694043 130.83932117 324.54344209 130.74439907 327.92877102 C131.59702075 336.30214478 132.84174609 344.58657865 134.22094727 352.88793945 C134.46781486 354.39550558 134.71425221 355.90314221 134.96029663 357.4108429 C135.48692763 360.63266141 136.01640079 363.85399468 136.54812813 367.07497597 C137.38944158 372.17234427 138.22333782 377.27090942 139.05613708 382.36967468 C141.12425251 395.02436679 143.20241052 407.67740727 145.28173828 420.33026123 C146.9011895 430.18559903 148.5180331 440.0413505 150.12734646 449.89834946 C150.95460897 454.96345703 151.78711912 460.02766497 152.6236707 465.09124625 C153.14287074 468.24090988 153.65744109 471.39131714 154.17075729 474.5419445 C154.40906579 475.9987013 154.64927987 477.45514789 154.89157295 478.91124725 C155.22291691 480.90415832 155.54669446 482.89832293 155.87013245 484.89253235 C156.05319222 486.00614293 156.236252 487.11975351 156.42485905 488.26710987 C157.17693017 494.53931428 157.33533389 499.09832136 153.8125 504.5 C149.57795125 508.68938023 146.35102997 510.6786213 140.39453125 510.91796875 C133.25144038 510.8445699 128.53491695 508.41227502 122.5 504.8125 C121.46875 504.22597656 120.4375 503.63945312 119.375 503.03515625 C117.22996532 501.8124081 115.09111728 500.57874502 112.95849609 499.33447266 C109.0413953 497.05035848 105.09416404 494.82235157 101.14379883 492.59643555 C99.24720846 491.52703791 97.35252663 490.45424877 95.4597168 489.37817383 C88.62473063 485.49517504 81.73450473 481.72533981 74.8125 478 C66.08652261 473.30204569 57.43467305 468.49048442 48.81958008 463.5925293 C39.68081614 458.40486605 30.48922158 453.31478505 21.27050781 448.27075195 C15.86630161 445.31078057 10.48153766 442.33306519 5.1796875 439.19140625 C4.3544458 438.70889404 3.5292041 438.22638184 2.67895508 437.72924805 C1.19733139 436.85836041 -0.27517069 435.97166103 -1.7355957 435.06567383 C-4.69585287 433.33938274 -6.56727506 432.41335724 -10.01171875 432.89453125 C-14.61744886 435.22288927 -19.09811901 437.72436562 -23.5625 440.3125 C-31.71543972 444.98323784 -39.91024059 449.55328624 -48.1875 454 C-55.96597846 458.18701156 -63.69511197 462.44725218 -71.375 466.8125 C-79.98744956 471.70725455 -88.6354833 476.53346752 -97.3125 481.3125 C-98.21498978 481.80958466 -98.21498978 481.80958466 -99.13571167 482.31671143 C-102.21605355 484.01297052 -105.29689049 485.70832821 -108.37792969 487.40332031 C-114.26910407 490.64481732 -120.15614782 493.89380503 -126.043396 497.14242554 C-127.88183146 498.1567848 -129.72043431 499.17083999 -131.55908203 500.18481445 C-132.68942871 500.80831787 -133.81977539 501.43182129 -134.984375 502.07421875 C-136.05131592 502.65937256 -137.11825684 503.24452637 -138.2175293 503.84741211 C-140.0894926 504.88903312 -141.94978194 505.95219631 -143.79223633 507.04516602 C-150.06907015 510.74332357 -154.89184554 511.62400953 -162.1875 510.5 C-166.66620656 508.34062362 -169.36948188 505.57047061 -172.1875 501.5 C-175.33866093 492.04651722 -171.37964168 479.57006251 -169.77905273 469.875 C-169.53212819 468.3541979 -169.28569275 466.83331632 -169.03970337 465.31236267 C-168.51353403 462.06538269 -167.98404379 458.81896904 -167.45187187 455.57296753 C-166.610154 450.4383214 -165.77647337 445.30238941 -164.94386292 440.16625977 C-163.32744148 430.20183327 -161.70305914 420.2387129 -160.07774353 410.27573395 C-158.00456064 397.5652174 -155.93480739 384.85414698 -153.87265354 372.14183617 C-153.04429579 367.03705632 -152.21190243 361.93295594 -151.3763293 356.82935238 C-150.85819492 353.65994557 -150.34329378 350.49001958 -149.82924271 347.3199482 C-149.5903679 345.85115722 -149.35013035 344.38258713 -149.10842705 342.91425896 C-148.77860377 340.90949869 -148.4541024 338.90386504 -148.12986755 336.89819336 C-147.85527789 335.21589882 -147.85527789 335.21589882 -147.57514095 333.49961853 C-146.73505926 328.41512243 -146.73505926 328.41512243 -148.317276 323.77568054 C-148.84687424 323.26020157 -149.37647247 322.7447226 -149.92211914 322.21362305 C-150.52016861 321.61917892 -151.11821808 321.0247348 -151.73439026 320.41227722 C-152.39051804 319.78509293 -153.04664581 319.15790863 -153.72265625 318.51171875 C-154.39413193 317.84968948 -155.0656076 317.18766022 -155.75743103 316.50556946 C-157.91014462 314.38745214 -160.07920403 312.2870671 -162.25 310.1875 C-164.3923641 308.09539098 -166.53114358 305.99971947 -168.66758728 303.90156555 C-169.99687767 302.59829227 -171.33009424 301.29900633 -172.66798401 300.00456238 C-176.44720565 296.32415514 -179.96069231 292.50802282 -183.40403748 288.51325989 C-186.473992 285.04774479 -189.77010622 281.81504459 -193.0625 278.5625 C-193.79065918 277.83812744 -194.51881836 277.11375488 -195.26904297 276.36743164 C-197.57275646 274.07581697 -199.87969474 271.78749348 -202.1875 269.5 C-205.23214779 266.48214919 -208.27332967 263.46086584 -211.3125 260.4375 C-211.99812012 259.76017822 -212.68374023 259.08285645 -213.39013672 258.38500977 C-216.60841418 255.18289861 -219.71657592 251.94181317 -222.6809082 248.50219727 C-226.30932202 244.29686585 -230.20089006 240.41124626 -234.16796875 236.52734375 C-235.67671865 235.03609696 -237.18517352 233.54455162 -238.69335938 232.05273438 C-241.04029039 229.73680381 -243.38947581 227.42330765 -245.74389648 225.11499023 C-248.03792418 222.86342245 -250.32228564 220.60240066 -252.60546875 218.33984375 C-253.30657272 217.65736069 -254.0076767 216.97487762 -254.73002625 216.27171326 C-259.32064047 211.70520523 -263.49151934 207.22554351 -264.71875 200.65625 C-264.64509453 194.39553536 -264.13689823 190.46206445 -260.1875 185.5 C-254.60477257 181.65806496 -249.57865182 180.54030563 -242.93334961 179.59643555 C-241.92357056 179.44128479 -240.9137915 179.28613403 -239.87341309 179.12628174 C-236.53079059 178.61615788 -233.18551129 178.1264389 -229.83984375 177.63671875 C-227.47120971 177.27931939 -225.10276901 176.9206366 -222.73451233 176.56074524 C-216.4691035 175.61210655 -210.20126043 174.68062629 -203.93273926 173.75280762 C-197.73556558 172.83275789 -191.54071251 171.89738252 -185.34570312 170.96289062 C-176.84780861 169.68238561 -168.3490832 168.40769367 -159.84911537 167.14102364 C-149.36662947 165.57890737 -138.88662534 164.00217405 -128.41064453 162.39697266 C-127.32740308 162.23114717 -126.24416162 162.06532167 -125.12809467 161.89447117 C-120.03789537 161.11485416 -114.94810996 160.33266256 -109.85887146 159.54679871 C-108.07462741 159.27306472 -106.29037212 158.99940394 -104.50610352 158.72583008 C-103.69951609 158.60032335 -102.89292866 158.47481663 -102.06189919 158.34550667 C-99.07106517 157.88856314 -96.2181578 157.5 -93.1875 157.5 C-92.82398438 156.28957031 -92.46046875 155.07914063 -92.0859375 153.83203125 C-90.13387265 147.98836454 -87.4480175 142.54881406 -84.72323608 137.03244019 C-83.13466422 133.81436184 -81.56615994 130.58651189 -79.99609375 127.359375 C-79.67439713 126.6990477 -79.3527005 126.0387204 -79.02125549 125.35838318 C-75.89216294 118.92181456 -72.87276221 112.43619491 -69.875 105.9375 C-64.92726367 95.22489311 -59.92008584 84.54208633 -54.875 73.875 C-54.51893677 73.12204651 -54.16287354 72.36909302 -53.79602051 71.59332275 C-52.3503424 68.53622573 -50.90466084 65.47913035 -49.45880127 62.42211914 C-45.50347657 54.05729309 -41.56335402 45.68532653 -37.625 37.3125 C-37.30542328 36.63314392 -36.98584656 35.95378784 -36.65658569 35.25384521 C-36.03335288 33.92895755 -35.41033865 32.60396703 -34.78755188 31.27886963 C-34.18134987 29.99111048 -33.57353588 28.7041088 -32.96403503 27.41790771 C-31.30974367 23.92094325 -29.69529508 20.4105055 -28.12158203 16.87646484 C-27.77329849 16.10646652 -27.42501495 15.3364682 -27.06617737 14.5431366 C-26.39770994 13.06396853 -25.73928543 11.58020445 -25.09288025 10.09126282 C-22.71729408 4.87793348 -19.99281896 2.01638863 -14.875 -0.75 C-9.55095447 -2.23578015 -5.0512891 -2.15394592 0 0 Z " fill="#ECEFF1" transform="translate(264.1875,1.5)"/>
<path d="M0 0 C0.38905545 54.9911011 0.68863511 109.98206323 0.8681106 164.97426974 C0.88937278 171.46559614 0.91137624 177.95691983 0.93383789 184.44824219 C0.94052681 186.38671183 0.94052681 186.38671183 0.94735085 188.36434247 C1.02133705 209.29338755 1.15538098 230.22163934 1.31159753 251.1502137 C1.47053806 272.62270812 1.56499124 294.09478692 1.59950441 315.56784546 C1.62283918 328.81992811 1.6965475 342.06976875 1.83457994 355.32116123 C1.92439999 364.40652547 1.95161274 373.49072975 1.92952342 382.57650582 C1.91862532 387.82067245 1.93539002 393.0609212 2.02649307 398.30439186 C2.10934782 403.10822492 2.1133642 407.90551676 2.05528121 412.70965363 C2.04810701 414.44481081 2.06961379 416.18037887 2.1230141 417.91472898 C2.42979403 428.49561922 2.42979403 428.49561922 0 433 C-4.20425524 437.19589558 -9.5400206 439.67459228 -14.91142077 442.05746521 C-17.88802416 443.40074786 -20.69232002 444.98332845 -23.5390625 446.58203125 C-25.56626382 447.66157111 -27.59492484 448.73837415 -29.625 449.8125 C-37.91166611 454.23615906 -46.14848347 458.72876492 -54.3125 463.375 C-62.88236306 468.25075078 -71.48846821 473.05619077 -80.125 477.8125 C-80.72983215 478.14564209 -81.33466431 478.47878418 -81.95782471 478.82202148 C-85.04813138 480.52386108 -88.1389291 482.2248064 -91.22998047 483.92529297 C-95.67549798 486.37121564 -100.11938758 488.82008996 -104.56147766 491.27223206 C-107.65825531 492.9816157 -110.75669245 494.68778643 -113.85961914 496.38598633 C-119.08944705 499.25281128 -124.29244744 502.14286157 -129.3984375 505.2265625 C-144.57986458 514.32464632 -144.57986458 514.32464632 -154 512 C-158.47870656 509.84062362 -161.18198188 507.07047061 -164 503 C-167.15116093 493.54651722 -163.19214168 481.07006251 -161.59155273 471.375 C-161.34462819 469.8541979 -161.09819275 468.33331632 -160.85220337 466.81236267 C-160.32603403 463.56538269 -159.79654379 460.31896904 -159.26437187 457.07296753 C-158.422654 451.9383214 -157.58897337 446.80238941 -156.75636292 441.66625977 C-155.13994148 431.70183327 -153.51555914 421.7387129 -151.89024353 411.77573395 C-149.81706064 399.0652174 -147.74730739 386.35414698 -145.68515354 373.64183617 C-144.85679579 368.53705632 -144.02440243 363.43295594 -143.1888293 358.32935238 C-142.67069492 355.15994557 -142.15579378 351.99001958 -141.64174271 348.8199482 C-141.4028679 347.35115722 -141.16263035 345.88258713 -140.92092705 344.41425896 C-140.59110377 342.40949869 -140.2666024 340.40386504 -139.94236755 338.39819336 C-139.66777789 336.71589882 -139.66777789 336.71589882 -139.38764095 334.99961853 C-138.54755926 329.91512243 -138.54755926 329.91512243 -140.129776 325.27568054 C-140.65937424 324.76020157 -141.18897247 324.2447226 -141.73461914 323.71362305 C-142.33266861 323.11917892 -142.93071808 322.5247348 -143.54689026 321.91227722 C-144.20301804 321.28509293 -144.85914581 320.65790863 -145.53515625 320.01171875 C-146.20663193 319.34968948 -146.8781076 318.68766022 -147.56993103 318.00556946 C-149.72264462 315.88745214 -151.89170403 313.7870671 -154.0625 311.6875 C-156.2048641 309.59539098 -158.34364358 307.49971947 -160.48008728 305.40156555 C-161.80937767 304.09829227 -163.14259424 302.79900633 -164.48048401 301.50456238 C-168.25970565 297.82415514 -171.77319231 294.00802282 -175.21653748 290.01325989 C-178.286492 286.54774479 -181.58260622 283.31504459 -184.875 280.0625 C-185.60315918 279.33812744 -186.33131836 278.61375488 -187.08154297 277.86743164 C-189.38525646 275.57581697 -191.69219474 273.28749348 -194 271 C-197.04464779 267.98214919 -200.08582967 264.96086584 -203.125 261.9375 C-203.81062012 261.26017822 -204.49624023 260.58285645 -205.20263672 259.88500977 C-208.42091418 256.68289861 -211.52907592 253.44181317 -214.4934082 250.00219727 C-218.12182202 245.79686585 -222.01339006 241.91124626 -225.98046875 238.02734375 C-227.48921865 236.53609696 -228.99767352 235.04455162 -230.50585938 233.55273438 C-232.85279039 231.23680381 -235.20197581 228.92330765 -237.55639648 226.61499023 C-239.85042418 224.36342245 -242.13478564 222.10240066 -244.41796875 219.83984375 C-245.11907272 219.15736069 -245.8201767 218.47487762 -246.54252625 217.77171326 C-251.13314047 213.20520523 -255.30401934 208.72554351 -256.53125 202.15625 C-256.45759453 195.89553536 -255.94939823 191.96206445 -252 187 C-246.41727257 183.15806496 -241.39115182 182.04030563 -234.74584961 181.09643555 C-233.73607056 180.94128479 -232.7262915 180.78613403 -231.68591309 180.62628174 C-228.34329059 180.11615788 -224.99801129 179.6264389 -221.65234375 179.13671875 C-219.28370971 178.77931939 -216.91526901 178.4206366 -214.54701233 178.06074524 C-208.2816035 177.11210655 -202.01376043 176.18062629 -195.74523926 175.25280762 C-189.54806558 174.33275789 -183.35321251 173.39738252 -177.15820312 172.46289062 C-168.66030861 171.18238561 -160.1615832 169.90769367 -151.66161537 168.64102364 C-141.17912947 167.07890737 -130.69912534 165.50217405 -120.22314453 163.89697266 C-119.13990308 163.73114717 -118.05666162 163.56532167 -116.94059467 163.39447117 C-111.85039537 162.61485416 -106.76060996 161.83266256 -101.67137146 161.04679871 C-99.88712741 160.77306472 -98.10287212 160.49940394 -96.31860352 160.22583008 C-95.51201609 160.10032335 -94.70542866 159.97481663 -93.87439919 159.84550667 C-90.88356517 159.38856314 -88.0306578 159 -85 159 C-84.63648438 157.78957031 -84.27296875 156.57914063 -83.8984375 155.33203125 C-81.94637265 149.48836454 -79.2605175 144.04881406 -76.53573608 138.53244019 C-74.94716422 135.31436184 -73.37865994 132.08651189 -71.80859375 128.859375 C-71.48689713 128.1990477 -71.1652005 127.5387204 -70.83375549 126.85838318 C-67.70466294 120.42181456 -64.68526221 113.93619491 -61.6875 107.4375 C-56.73976367 96.72489311 -51.73258584 86.04208633 -46.6875 75.375 C-46.33143677 74.62204651 -45.97537354 73.86909302 -45.60852051 73.09332275 C-44.1628424 70.03622573 -42.71716084 66.97913035 -41.27130127 63.92211914 C-37.31597657 55.55729309 -33.37585402 47.18532653 -29.4375 38.8125 C-29.11792328 38.13314392 -28.79834656 37.45378784 -28.46908569 36.75384521 C-27.84585288 35.42895755 -27.22283865 34.10396703 -26.60005188 32.77886963 C-25.99384987 31.49111048 -25.38603588 30.2041088 -24.77653503 28.91790771 C-23.12224367 25.42094325 -21.50779508 21.9105055 -19.93408203 18.37646484 C-19.58579849 17.60646652 -19.23751495 16.8364682 -18.87867737 16.0431366 C-18.21020994 14.56396853 -17.55178543 13.08020445 -16.90538025 11.59126282 C-14.49693367 6.30581983 -11.76144148 3.34704463 -6.4375 0.75 C-4 0 -4 0 0 0 Z " fill="#FFC106" transform="translate(256,0)"/>
</svg>
